<?xml version="1.0" standalone="no"?><!DOCTYPE svg PUBLIC "-//W3C//DTD SVG 1.1//EN" "http://www.w3.org/Graphics/SVG/1.1/DTD/svg11.dtd"><svg t="1504715072181" class="icon" style="" viewBox="0 0 1026 1024" version="1.1" xmlns="http://www.w3.org/2000/svg" p-id="692" xmlns:xlink="http://www.w3.org/1999/xlink" width="32.0625" height="32"><defs><style type="text/css"></style></defs><path d="M511.500486 0.499512C229.009691 0.499512 0 229.509203 0 512 0 794.490796 229.009691 1023.500488 511.500486 1023.500488 793.991286 1023.500488 1023.000974 794.490796 1023.000974 512 1023.000974 229.509203 793.991286 0.499512 511.500486 0.499512L511.500486 0.499512ZM426.470294 377.988596C448.704506 383.833276 463.387742 395.233021 471.793614 413.053192 481.49055 433.434552 478.922378 459.80366 465.52323 480.18502 456.827742 493.584172 441.293102 507.269448 409.648082 529.646724 403.377698 534.20732 394.682209 540.906892 390.404252 544.898724L382.567145 551.880936 431.456594 552.027488 480.202974 552.027488 479.920338 577.255576 479.491146 602.626724 291.341273 602.626724 291.770464 597.636936C292.625358 590.082468 297.468592 575.256172 303.030634 563.996 313.292847 542.620172 333.248507 522.092256 372.873698 491.874384 408.793186 464.364256 419.055402 449.684512 413.067654 434.146384 409.794634 425.31132 398.817102 418.182552 388.55489 418.039488 382.281018 418.039488 373.871656 421.176424 369.454124 425.450892 365.891486 428.873956 360.472507 441.843916 360.472507 447.259404 360.472507 449.112256 360.046805 450.965108 359.47455 451.251236 357.907826 452.249192 297.901273 447.259404 296.760252 446.121872 295.050464 444.408596 299.181869 426.309276 303.745954 415.331744 312.581018 394.238553 331.964422 380.270638 358.337018 375.992681 376.436337 372.998808 411.504422 374.13634 426.470294 377.988596L426.470294 377.988596ZM138.681698 394.095489C141.535996 402.930552 152.653103 438.70698 163.484082 473.488936 174.461613 508.267404 183.582805 536.203236 184.011996 535.487916 184.437698 534.779576 195.554805 499.142724 208.814379 456.094468L232.758379 378.12817 304.740422 378.12817 301.889613 385.543064C300.32289 389.674468 281.651316 440.277192 260.268507 497.862128L221.355145 602.626724 183.014039 602.912852 144.529869 603.338552 102.479571 492.017448C79.390464 430.726808 60.289698 379.981021 60.003571 379.412255 59.720932 378.700426 76.253528 378.12817 96.638379 378.12817L133.69889 378.12817 138.681698 394.095489 138.681698 394.095489ZM681.18323 402.361788 681.18323 426.591916 564.30357 426.591916 564.30357 460.801616 618.182806 461.084256 671.915486 461.513448 672.348166 484.602552 672.630806 507.838212 618.894634 508.12434 565.01191 508.550044 565.01191 551.312172 624.453186 551.737872 683.890974 552.027488 684.320166 572.265788 684.74587 592.36102 719.524338 540.052C738.628594 511.257788 754.306294 487.02766 754.306294 486.029704 754.306294 485.031744 738.91123 460.658552 719.95353 431.86434 700.995826 402.930552 685.457698 378.983064 685.457698 378.700426 685.457698 378.414298 702.991742 378.12817 724.371062 378.12817L763.141358 378.12817 782.242122 411.626044C792.790466 429.871916 801.911654 444.694724 802.337358 444.408596 802.909614 443.979404 811.605102 429.01702 821.584678 410.914212L839.970122 378.12817 878.168166 378.12817C899.125274 378.12817 916.373186 378.414298 916.373186 378.843489 916.373186 379.269192 900.978122 403.645872 882.159998 433.008852 863.345358 462.225276 847.950294 486.601956 847.950294 487.170724 847.950294 487.599916 864.486378 513.11064 884.728166 543.900764 904.966466 574.690892 922.071314 600.630808 922.64357 601.485704 923.498466 602.912852 915.371742 603.338552 884.012846 603.338552L844.244594 603.338552 823.008338 568.420512C811.179402 549.173192 801.199826 533.638552 800.62757 533.92468 799.91923 534.067744 790.082718 549.602384 778.393358 568.420512L757.296678 602.626724 625.880338 603.055916 494.460506 603.338552 494.460506 378.12817 681.18323 378.12817 681.18323 402.361788 681.18323 402.361788Z" p-id="693"></path></svg>