<?xml version="1.0" standalone="no"?><!DOCTYPE svg PUBLIC "-//W3C//DTD SVG 1.1//EN" "http://www.w3.org/Graphics/SVG/1.1/DTD/svg11.dtd"><svg t="1504714699039" class="icon" style="" viewBox="0 0 1024 1024" version="1.1" xmlns="http://www.w3.org/2000/svg" p-id="3411" xmlns:xlink="http://www.w3.org/1999/xlink" width="32" height="32"><defs><style type="text/css"></style></defs><path d="M320.10508 308.224C300.681523 308.224 281.069517 321.28 281.069517 341.072842 281.069517 360.784842 300.681523 374.002527 320.10508 374.002527 339.555561 374.002527 352.598822 360.784842 352.598822 341.072842 352.598822 321.28 339.569021 308.224 320.10508 308.224L320.10508 308.224Z" p-id="3412"></path><path d="M501.687754 374.016C521.299761 374.016 534.262259 360.784842 534.262259 341.086316 534.262259 321.28 521.299761 308.237473 501.687754 308.237473 482.264197 308.237473 462.719493 321.293473 462.719493 341.086316 462.732954 360.784842 482.264197 374.016 501.687754 374.016L501.687754 374.016Z" p-id="3413"></path><path d="M511.500488 0C228.990692 0 0 229.200842 0 512 0 794.785684 228.990692 1024 511.500488 1024 794.023744 1024 1023.014436 794.785684 1023.014436 512 1023.014436 229.200842 794.023744 0 511.500488 0L511.500488 0ZM404.448819 644.082527C372.03584 644.082527 345.949317 637.44 313.563259 630.864842L222.852685 677.052631 248.764223 597.840842C183.817122 551.774316 144.943085 492.476631 144.943085 420.190316 144.943085 294.912 261.820946 196.284632 404.448819 196.284632 532.05473 196.284632 643.817587 275.119158 666.229386 381.103158 658.058839 380.173473 649.686382 379.567158 641.246625 379.567158 517.975007 379.567158 420.641848 472.939789 420.641848 587.856842 420.641848 607.070316 423.616627 625.502316 428.637407 643.085473 420.641848 643.745684 412.619366 644.082527 404.448819 644.082527L404.448819 644.082527ZM787.19925 736.242527 806.717033 802.128842 735.564623 762.610527C709.5454 769.185684 683.566559 775.760842 657.722324 775.760842 534.27572 775.760842 436.929101 690.162527 436.929101 584.784842 436.929101 479.501473 534.27572 393.728 657.722324 393.728 774.250212 393.728 878.08481 479.488 878.08481 584.784842 878.07135 644.082527 839.304998 696.656842 787.19925 736.242527L787.19925 736.242527Z" p-id="3414"></path><path d="M728.820892 499.105684C716.03338 499.105684 703.151644 512.336842 703.151644 525.487158 703.151644 538.691369 716.03338 551.760842 728.820892 551.760842 748.338675 551.760842 761.381937 538.691369 761.381937 525.487158 761.368476 512.336842 748.338675 499.105684 728.820892 499.105684L728.820892 499.105684Z" p-id="3415"></path><path d="M586.085335 499.105684C573.23052 499.105684 560.187259 512.336842 560.187259 525.487158 560.187259 538.691369 573.23052 551.760842 586.085335 551.760842 605.778104 551.760842 618.579077 538.691369 618.579077 525.487158 618.579077 512.336842 605.778104 499.105684 586.085335 499.105684L586.085335 499.105684Z" p-id="3416"></path></svg>