<?xml version="1.0" standalone="no"?><!DOCTYPE svg PUBLIC "-//W3C//DTD SVG 1.1//EN" "http://www.w3.org/Graphics/SVG/1.1/DTD/svg11.dtd"><svg t="1504715351991" class="icon" style="" viewBox="0 0 1024 1024" version="1.1" xmlns="http://www.w3.org/2000/svg" p-id="5157" xmlns:xlink="http://www.w3.org/1999/xlink" width="32" height="32"><defs><style type="text/css"></style></defs><path d="M738.015082 705.524598" p-id="5158"></path><path d="M640.77541 716.420763 707.240171 672.514787 760.529865 672.514787 760.529865 323.927577 608.476797 323.927577 608.476797 672.514787 625.066637 672.514787Z" p-id="5159"></path><path d="M505.464655 49.40727c-252.866125 0-457.854822 204.989721-457.854822 457.852776 0 252.865101 204.988698 457.853799 457.854822 457.853799 252.863055 0 457.851753-204.988698 457.851753-457.853799C963.316407 254.396991 758.32771 49.40727 505.464655 49.40727zM403.19748 528.034185c-0.037862 0.582261-0.080841 1.163499-0.12382 1.729387-1.747807 23.551392-7.361665 50.616818-15.171538 77.996398l0.032746-0.101307 28.117384-20.796652 83.055624 93.00523c10.81123 38.069037-3.895727 72.675206-3.895727 72.675206L383.173424 623.547539l0.038886-0.122797c-11.067057 35.297924-25.254174 70.101591-38.971593 97.5395-26.38595 52.774971-64.454988 63.158459-104.684224 66.617234-40.23026 3.459798-27.252691-6.056949-27.252691-6.056949 79.595826-64.021106 91.275843-101.223403 113.337301-141.886521 13.923104-25.65838 23.87885-74.05667 29.550013-111.603821L219.226468 528.034185c0 0 5.625114-35.905768 22.493294-48.015573l118.959346 0c0.721431-17.690918-1.566682-118.507044-2.346441-151.405315l-57.783031 0c-10.8143 51.90823-48.015573 65.318658-56.235792 69.213361-8.216125 3.891633-27.682479 8.217149-24.654516 0 3.027963-8.219195 31.578206-53.207829 50.610678-127.613446 19.037589-74.404594 74.837452-71.39198 74.837452-71.39198-14.994506 25.971511-26.244734 84.803431-26.244734 84.803431l186.877201 0c11.824303 0 12.399401 44.98761 12.399401 44.98761L411.823951 328.612273c-0.850367 26.148543-3.229554 96.550986-5.885034 151.405315l111.766526 0c0 0 14.278191 17.736966 14.278191 48.015573L403.19748 528.033162zM808.832987 720.531384 706.312032 720.531384l-81.346703 53.738925-19.228947-53.738925-46.933939 0L558.802444 274.108938l250.031567 0L808.834011 720.531384z" p-id="5160"></path></svg>